# xmcd
#
# Track frame offsets:
#	150
#	22149
#	36723
#	52466
#	85483
#	102100
#	125310
#	144163
#	158836
#	172424
#	188756
#	204277
#	230773
#	247984
#	264936
#	281967
#	298919
#	317059
#
# Disc length: 4374 seconds
#
# Revision: 1
# Processed by: cddbd v1.5.1PL0 Copyright (c) Steve Scherf et al.
# Submitted via: dBpowerAMP V4.0
#
DISCID=1a111412
DTITLE=Various Artist - On the wings 2000
DYEAR=1900
DGENRE=Acid Punk
TTITLE0=Beyonce - Dangerously in love
TTITLE1=Billy Currington - I Got the feeling
TTITLE2=Black eyed peas - lets get it stardet (radio edit)
TTITLE3=Bobby Blanco and Miki Moto - 3 am
TTITLE4=Bowling for soup - 1995
TTITLE5=Boys 2 man - I miss you
TTITLE6=Brad paisley - Whiskey lullaby
TTITLE7=Brenda Lee - Crying time
TTITLE8=Brenda lee - Funny how times slips away
TTITLE9=Britney Spears - Everytime
TTITLE10=Britney Spears - Everytime (Dance remix)
TTITLE11=Britney Spears - Outrageous (mcsleazy remix)
TTITLE12=Christina Milian - Whatever you want
TTITLE13=Christina Milian - Whatever you want (radio edit)
TTITLE14=Christina Milian ft. Joe Budden - Whatever you want
TTITLE15=Christina Milian ft. Joe Budden - Whatever you want (radio edit)
TTITLE16=Chromeo - Needy girl
TTITLE17=Chromeo - Needy girl (instrumental)
EXTD=
EXTT0=
EXTT1=
EXTT2=
EXTT3=
EXTT4=
EXTT5=
EXTT6=
EXTT7=
EXTT8=
EXTT9=
EXTT10=
EXTT11=
EXTT12=
EXTT13=
EXTT14=
EXTT15=
EXTT16=
EXTT17=
PLAYORDER=
